<svg width="256" height="256" viewBox="0 0 256 256" xmlns="http://www.w3.org/2000/svg" aria-label="Content layout icon"><path fill="#FFF" d="M0 0h256v512H0z"/><rect x="12" y="24" width="84.48" height="10" rx="1" fill="#555"/><rect x="12" y="44" width="220" height="6" rx="1" fill="#BBB"/><rect x="12" y="60" width="200" height="6" rx="1" fill="#BBB"/><rect x="12" y="76" width="236" height="6" rx="1" fill="#BBB"/><rect x="12" y="92" width="180" height="6" rx="1" fill="#BBB"/><rect x="12" y="108" width="210" height="6" rx="1" fill="#BBB"/><rect x="12" y="148" width="84.48" height="10" rx="1" fill="#555"/><rect x="12" y="168" width="230" height="6" rx="1" fill="#BBB"/><rect x="12" y="184" width="195" height="6" rx="1" fill="#BBB"/><rect x="12" y="200" width="236" height="6" rx="1" fill="#BBB"/><rect x="12" y="216" width="165" height="6" rx="1" fill="#BBB"/><rect x="12" y="260" width="224" height="6" rx="1" fill="#EEE"/><rect x="12" y="276" width="236" height="6" rx="1" fill="#EEE"/><rect x="12" y="292" width="180" height="6" rx="1" fill="#EEE"/></svg>