<svg width="256" height="128" viewBox="0 0 256 128" xmlns="http://www.w3.org/2000/svg" aria-label="Hero image layout icon"><path fill="#FFF" d="M0 0h256v128H0z"/><path d="M160.667 9.333H95.333a14 14 0 0 0-14 14v65.334a14 14 0 0 0 14 14h65.334a14 14 0 0 0 2.286-.234l1.4-.326h.56l1.727-.654.607-.326c.466-.28.98-.514 1.446-.84a19 19 0 0 0 1.774-1.494l.326-.42a14 14 0 0 0 1.26-1.493l.42-.607a11 11 0 0 0 .84-1.633 4.7 4.7 0 0 0 .327-.7c.233-.56.373-1.167.56-1.773v-.7a12 12 0 0 0 .467-2.8V23.333a14 14 0 0 0-14-14m-65.334 84a4.667 4.667 0 0 1-4.666-4.666V68.553l15.353-15.4a4.667 4.667 0 0 1 6.627 0l40.133 40.18Zm70-4.666a4.7 4.7 0 0 1-.326 1.68 4.7 4.7 0 0 1-.374.653 5 5 0 0 1-.42.56l-24.966-24.967 4.106-4.106a4.667 4.667 0 0 1 6.627 0l15.353 15.4Zm0-23.987L156.56 56a14.373 14.373 0 0 0-19.787 0l-4.106 4.107-13.44-13.44a14.373 14.373 0 0 0-19.787 0l-8.773 8.68V23.333a4.667 4.667 0 0 1 4.666-4.666h65.334a4.667 4.667 0 0 1 4.666 4.666Z"/><path opacity=".2" d="M0 112h256v16H0z"/><rect x="12" y="116" width="84.48" height="10" rx="1" fill="#555"/></svg>